<?xml version="1.0" standalone="no"?><!DOCTYPE svg PUBLIC "-//W3C//DTD SVG 1.1//EN" "http://www.w3.org/Graphics/SVG/1.1/DTD/svg11.dtd"><svg t="1691027590270" class="icon" viewBox="0 0 1024 1024" version="1.1" xmlns="http://www.w3.org/2000/svg" p-id="3852" xmlns:xlink="http://www.w3.org/1999/xlink" width="200" height="200"><path d="M99.067808 792.648888l-30.017664 51.978838c-16.700357 28.944216-6.766101 65.513086 21.979594 82.116229 28.66997 16.563234 65.473177 6.707772 82.07632-22.038946l30.018687-51.980885L99.067808 792.648888z" fill="#7D7D7D" p-id="3853"></path><path d="M571.617307 94.305853c-28.668946-16.554024-65.49262-6.727215-82.07632 22.039969l-90.093924 156.027589 104.057961 60.075237-10.013051 17.346063-104.056937-60.07626L109.080859 775.302825l104.056937 60.075237L593.597925 176.421059C610.298282 147.478889 600.364025 110.899786 571.617307 94.305853z" fill="#7D7D7D" p-id="3854"></path><path d="M958.159968 224.489844c1.291412-6.472412 1.994424-13.180184 1.994424-20.044522s-0.704035-13.57211-1.994424-20.044522c-42.670845-1.056052-77.030397-35.43607-78.067007-78.07724-6.492878-1.310855-13.199627-2.004657-20.063965-2.004657s-13.57211 0.693802-20.063965 2.004657c-1.036609 42.641169-35.396161 77.021188-78.067007 78.07724-1.291412 6.472412-1.994424 13.180184-1.994424 20.044522s0.704035 13.57211 1.994424 20.044522c42.670845 1.056052 77.030397 35.43607 78.067007 78.07724 6.492878 1.310855 13.199627 2.004657 20.063965 2.004657s13.57211-0.693802 20.063965-2.004657C881.12957 259.925914 915.489122 225.545896 958.159968 224.489844z" fill="#7D7D7D" p-id="3855"></path><path d="M697.830871 544.895201c1.291412-6.472412 1.994424-13.181207 1.994424-20.044522 0-6.864338-0.704035-13.57211-1.994424-20.045545-42.670845-1.055029-77.030397-35.435047-78.067007-78.07724-6.492878-1.309832-13.199627-2.004657-20.063965-2.004657s-13.57211 0.694825-20.063965 2.004657c-1.036609 42.642193-35.396161 77.022211-78.048587 78.07724-1.330298 6.473435-2.01489 13.181207-2.01489 20.045545 0 6.864338 0.684592 13.57211 2.01489 20.044522 42.652426 1.056052 77.011978 35.43607 78.048587 78.087473 6.492878 1.289366 13.199627 1.994424 20.063965 1.994424s13.57211-0.705058 20.063965-1.994424C620.800473 580.331271 655.160026 545.951253 697.830871 544.895201z" fill="#7D7D7D" p-id="3856"></path><path d="M898.084731 825.248354c1.290389-6.473435 1.994424-13.181207 1.994424-20.044522 0-6.865361-0.704035-13.573133-1.994424-20.046568-42.670845-1.055029-77.031421-35.434024-78.06803-78.087473-6.492878-1.289366-13.199627-1.994424-20.063965-1.994424-6.863315 0-13.57211 0.705058-20.063965 1.994424-1.036609 42.653449-35.396161 77.031421-78.067007 78.087473-1.290389 6.473435-1.994424 13.181207-1.994424 20.046568 0 6.863315 0.704035 13.571087 1.994424 20.044522 42.670845 1.055029 77.030397 35.43607 78.067007 78.087473 6.492878 1.291412 13.20065 1.994424 20.063965 1.994424 6.864338 0 13.57211-0.704035 20.063965-1.994424C821.05331 860.684424 855.413885 826.304406 898.084731 825.248354z" fill="#7D7D7D" p-id="3857"></path></svg>